<svg xmlns="http://www.w3.org/2000/svg" viewBox="0 0 800 600"
     role="img" aria-label="Limonene Circuit Tee — TerpForge technical schematic"
     preserveAspectRatio="xMidYMid slice">
  <!-- BACKGROUND -->
  <rect width="800" height="600" fill="#0A1628" />
  <defs>
    <pattern id="grid-tf-ap-002" x="0" y="0" width="40" height="40"
             patternUnits="userSpaceOnUse">
      <path d="M 40 0 L 0 0 0 40" fill="none"
            stroke="#0D9488" stroke-opacity="0.08" stroke-width="1" />
    </pattern>
    <radialGradient id="vignette-tf-ap-002" cx="50%" cy="42%" r="65%">
      <stop offset="0%" stop-color="#0F1F3D" stop-opacity="0.6" />
      <stop offset="100%" stop-color="#0A1628" stop-opacity="0" />
    </radialGradient>
    <linearGradient id="accent-tf-ap-002" x1="0" y1="0" x2="1" y2="0">
      <stop offset="0%" stop-color="#C9A84C" stop-opacity="0.95" />
      <stop offset="100%" stop-color="#C9A84C" stop-opacity="0.55" />
    </linearGradient>
  </defs>
  <rect width="800" height="600" fill="url(#grid-tf-ap-002)" />
  <rect width="800" height="600" fill="url(#vignette-tf-ap-002)" />

  <!-- CORNER REGISTRATION BRACKETS -->
  <g stroke="#C9A84C" stroke-width="2" fill="none">
    <path d="M 24 24 L 24 56 M 24 24 L 56 24" />
    <path d="M 776 24 L 776 56 M 776 24 L 744 24" />
    <path d="M 24 576 L 24 544 M 24 576 L 56 576" />
    <path d="M 776 576 L 776 544 M 776 576 L 744 576" />
  </g>

  <!-- HEADER STRIP -->
  <g font-family="ui-monospace, 'SF Mono', monospace" letter-spacing="2">
    <text x="36" y="50" font-size="10" font-weight="700" fill="#C9A84C">
      TF-SCHEMATIC // TF-AP-002
    </text>
    <text x="36" y="68" font-size="10" fill="#64748B">
      240gsm Combed Cotton · Embossed Molecular Print
    </text>
  </g>
  <g transform="translate(640, 36)">
    <rect width="124" height="22" fill="#C9A84C" />
    <text x="62" y="15" text-anchor="middle"
          font-family="ui-monospace, 'SF Mono', monospace"
          font-size="10" font-weight="700" letter-spacing="1.6"
          fill="#0A1628">BESTSELLER</text>
  </g>

  <!-- ICON STAMP -->
  <g transform="translate(36, 90)">
    <rect width="36" height="36" fill="none" stroke="#C9A84C" stroke-opacity="0.4" />
    <text x="18" y="26" text-anchor="middle" font-size="20" fill="#C9A84C">◈</text>
  </g>

  <!-- PRODUCT SILHOUETTE -->
  
  <g transform="translate(220, 130)" stroke="#C9A84C" stroke-width="2.2"
     fill="none" stroke-linejoin="round" stroke-linecap="round">
    <!-- COLLAR -->
    <path d="M 150 30 Q 180 50 210 30" />
    <!-- BODY -->
    <path d="M 80 50 L 150 30 L 150 50 Q 180 70 210 50 L 210 30 L 280 50
             L 320 130 L 280 145 L 280 360 L 80 360 L 80 145 L 40 130 Z" />
  </g>

  <!-- CHEST PRINT MOLECULE -->
  <g transform="translate(330, 260)" stroke="#C9A84C" stroke-width="1.8"
     fill="none">
    <circle cx="0" cy="0" r="6" fill="#C9A84C" />
    <circle cx="44" cy="-22" r="6" fill="#C9A84C" />
    <circle cx="44" cy="22" r="6" fill="#C9A84C" />
    <circle cx="88" cy="0" r="6" fill="#C9A84C" />
    <line x1="0" y1="0" x2="44" y2="-22" />
    <line x1="0" y1="0" x2="44" y2="22" />
    <line x1="44" y1="-22" x2="88" y2="0" />
    <line x1="44" y1="22" x2="88" y2="0" />
    <line x1="44" y1="-22" x2="44" y2="22" stroke-dasharray="3 2" />
  </g>

  <g font-family="ui-monospace, 'SF Mono', monospace" font-size="10"
     letter-spacing="1.4">
    <text x="540" y="200" fill="#C9A84C">LIMONENE C₁₀H₁₆</text>
    <text x="540" y="230" fill="#64748B">240 GSM RING-SPUN</text>
    <text x="540" y="250" fill="#64748B">COMBED COTTON</text>
    <text x="540" y="280" fill="#C9A84C">CHEST PRINT</text>
    <text x="540" y="300" fill="#64748B">EMBOSSED · TECHNICAL</text>
    <text x="540" y="330" fill="#64748B">PRE-SHRUNK</text>
  </g>


  <!-- FOOTER STRIP -->
  <g font-family="ui-monospace, 'SF Mono', monospace" letter-spacing="2">
    <text x="36" y="514" font-size="9" fill="#64748B">
      ENGINEERED // FORGED // VERIFIED
    </text>
  </g>
  <g transform="translate(36, 540)">
    <rect width="86" height="20" fill="none" stroke="#C9A84C" stroke-opacity="0.5" />
    <text x="43" y="14" text-anchor="middle"
          font-family="ui-monospace, 'SF Mono', monospace"
          font-size="10" font-weight="700" letter-spacing="2"
          fill="#C9A84C">FOCUS</text>
  </g>

  <!-- TF MONOGRAM -->
  <g transform="translate(710, 530)">
    <rect width="54" height="36" fill="none" stroke="#C9A84C" stroke-opacity="0.6" />
    <text x="27" y="24" text-anchor="middle"
          font-family="'Helvetica Neue', Arial, sans-serif"
          font-size="14" font-weight="800" letter-spacing="3"
          fill="#C9A84C">TF</text>
  </g>

  <!-- DIM LINE TICKERS -->
  <g stroke="#0D9488" stroke-opacity="0.35" stroke-width="1">
    <line x1="36" y1="140" x2="36" y2="490" />
    <line x1="32" y1="140" x2="40" y2="140" />
    <line x1="32" y1="315" x2="40" y2="315" />
    <line x1="32" y1="490" x2="40" y2="490" />
    <line x1="764" y1="140" x2="764" y2="490" />
    <line x1="760" y1="140" x2="768" y2="140" />
    <line x1="760" y1="315" x2="768" y2="315" />
    <line x1="760" y1="490" x2="768" y2="490" />
  </g>
</svg>
